<?xml version="1.0" encoding="iso-8859-1"?>
<!-- Generator: Adobe Illustrator 19.0.0, SVG Export Plug-In . SVG Version: 6.00 Build 0)  -->
<svg version="1.1" id="Capa_1" xmlns="http://www.w3.org/2000/svg" xmlns:xlink="http://www.w3.org/1999/xlink" x="0px" y="0px"
	 viewBox="0 0 512.001 512.001" style="enable-background:new 0 0 512.001 512.001;" xml:space="preserve">
<g>
	<g>
		<path d="M272.639,287.457c-9.173-9.176-24.103-9.176-33.278,0c-2.929,2.929-2.929,7.678,0,10.606
			c2.929,2.929,7.678,2.929,10.606,0c1.611-1.611,3.754-2.499,6.033-2.499s4.422,0.888,6.033,2.499
			c1.464,1.464,3.384,2.197,5.303,2.197s3.839-0.732,5.303-2.197C275.568,295.134,275.568,290.385,272.639,287.457z"/>
	</g>
</g>
<g>
	<g>
		<path d="M329.323,230.775c-19.585-19.585-45.625-30.371-73.322-30.371c-27.697,0-53.737,10.786-73.322,30.371
			c-2.929,2.929-2.929,7.678,0,10.606c2.929,2.929,7.678,2.929,10.606,0c16.752-16.752,39.025-25.978,62.716-25.978
			s45.964,9.226,62.716,25.978c1.464,1.464,3.384,2.197,5.303,2.197s3.839-0.732,5.303-2.197
			C332.252,238.452,332.252,233.703,329.323,230.775z"/>
	</g>
</g>
<g>
	<g>
		<path d="M300.982,259.116c-24.803-24.803-65.159-24.803-89.962,0c-2.929,2.929-2.929,7.678,0,10.606
			c2.929,2.929,7.678,2.929,10.606,0c18.954-18.954,49.795-18.954,68.749,0c1.465,1.465,3.384,2.197,5.304,2.197
			c1.919,0,3.839-0.732,5.303-2.197C303.911,266.793,303.911,262.044,300.982,259.116z"/>
	</g>
</g>
<g>
	<g>
		<path d="M488.469,320.645c-6.29,0-12.2,2.45-16.639,6.894l-55.507,55.507l-35.347-35.347
			c-13.724-13.724-21.282-31.971-21.282-51.379v-80.638c0-19.408,7.558-37.655,21.282-51.379l35.347-35.347l55.507,55.507
			c4.588,4.588,10.614,6.882,16.64,6.881c6.025,0,12.049-2.293,16.634-6.878c4.447-4.442,6.896-10.352,6.897-16.641
			c0-6.29-2.449-12.2-6.894-16.639l-57.289-57.289c-0.895-15.98-13.733-28.818-29.713-29.713L360.817,6.893
			c-9.175-9.174-24.104-9.174-33.273-0.003c-4.448,4.442-6.897,10.353-6.897,16.642s2.45,12.2,6.894,16.639l55.507,55.507
			l-13.923,13.923c-2.929,2.929-2.929,7.678,0,10.606c1.464,1.464,3.384,2.197,5.303,2.197s3.839-0.732,5.303-2.197l9.094-9.095
			c2.84,5.04,7.024,9.224,12.064,12.064l-30.518,30.519c-16.557,16.557-25.676,38.571-25.676,61.986v80.638
			c0,23.415,9.119,45.429,25.676,61.986l30.518,30.519c-5.04,2.84-9.224,7.024-12.064,12.064l-30.519-30.518
			c-16.557-16.557-38.571-25.676-61.986-25.676h-80.638c-23.415,0-45.429,9.119-61.986,25.676c-2.929,2.929-2.929,7.678,0,10.606
			c2.929,2.929,7.678,2.929,10.606,0c13.724-13.724,31.971-21.282,51.379-21.282h80.638c19.408,0,37.655,7.558,51.379,21.282
			l35.347,35.347l-55.506,55.507c-9.175,9.175-9.175,24.103-0.003,33.274c4.442,4.448,10.352,6.897,16.642,6.897
			c6.29,0,12.2-2.449,16.639-6.894l57.289-57.289c15.98-0.895,28.818-13.733,29.713-29.713l57.289-57.289
			c9.174-9.175,9.174-24.103,0.003-33.273C500.669,323.095,494.758,320.645,488.469,320.645z M443.823,111.113l50.681,50.681
			c1.61,1.608,2.497,3.749,2.497,6.029c0,2.279-0.887,4.42-2.5,6.032c-3.326,3.326-8.738,3.326-12.064,0l-50.678-50.678
			C436.8,120.337,440.983,116.153,443.823,111.113z M388.824,80.242l-50.681-50.681c-1.61-1.608-2.497-3.749-2.497-6.029
			c0-2.279,0.887-4.42,2.5-6.032c3.327-3.326,8.738-3.325,12.064,0l50.678,50.678C395.848,71.018,391.664,75.202,388.824,80.242z
			 M399.776,95.677c0-9.125,7.423-16.548,16.548-16.548s16.548,7.423,16.548,16.548s-7.423,16.548-16.548,16.548
			S399.776,104.802,399.776,95.677z M350.207,494.503c-1.608,1.61-3.749,2.497-6.029,2.497c-2.279,0-4.42-0.887-6.032-2.5
			c-3.326-3.326-3.326-8.738,0-12.064l50.678-50.678c2.84,5.041,7.024,9.224,12.064,12.065L350.207,494.503z M416.324,432.871
			c-9.125,0-16.548-7.423-16.548-16.548s7.423-16.548,16.548-16.548s16.548,7.423,16.548,16.548S425.449,432.871,416.324,432.871z
			 M494.501,350.209l-50.678,50.678c-2.841-5.04-7.024-9.224-12.064-12.064l50.681-50.681c1.608-1.61,3.749-2.497,6.029-2.497
			c2.28,0,4.42,0.887,6.032,2.5C497.827,341.472,497.827,346.883,494.501,350.209z"/>
	</g>
</g>
<g>
	<g>
		<path d="M358.306,131.025c-2.929-2.929-7.678-2.929-10.606,0c-13.724,13.724-31.971,21.282-51.379,21.282h-80.638
			c-19.408,0-37.655-7.558-51.379-21.282l-35.347-35.347l55.507-55.507c9.175-9.174,9.175-24.103,0.003-33.274
			C180.023,2.45,174.114,0,167.824,0c-6.29,0-12.2,2.45-16.639,6.894L93.896,64.182c-15.98,0.895-28.818,13.733-29.713,29.713
			L6.894,151.184c-9.174,9.175-9.174,24.103-0.003,33.273c4.442,4.448,10.353,6.897,16.642,6.897s12.2-2.45,16.639-6.894
			l55.507-55.507l35.347,35.347c13.724,13.724,21.282,31.971,21.282,51.379v80.638c0,19.408-7.558,37.655-21.282,51.379
			l-35.347,35.347l-55.507-55.506c-9.175-9.175-24.103-9.175-33.274-0.003c-4.448,4.444-6.897,10.354-6.897,16.643
			c0,6.29,2.449,12.2,6.894,16.639l57.289,57.289c0.895,15.98,13.733,28.818,29.713,29.713l57.289,57.289
			c4.588,4.587,10.614,6.881,16.64,6.881c6.024,0,12.049-2.293,16.634-6.878c4.448-4.442,6.897-10.353,6.897-16.642
			s-2.45-12.2-6.894-16.639l-55.508-55.506l13.756-13.756c2.929-2.929,2.929-7.678,0-10.606c-2.929-2.929-7.678-2.929-10.606,0
			l-8.927,8.928c-2.84-5.04-7.024-9.224-12.064-12.064l30.518-30.519c16.557-16.557,25.676-38.571,25.676-61.986v-80.638
			c0-23.415-9.119-45.429-25.676-61.986l-30.518-30.519c5.04-2.84,9.224-7.024,12.064-12.064l30.519,30.518
			c16.557,16.557,38.571,25.676,61.986,25.676h80.638c23.415,0,45.429-9.119,61.986-25.676
			C361.236,138.702,361.236,133.953,358.306,131.025z M68.178,400.887l-50.681-50.681c-1.609-1.608-2.496-3.749-2.496-6.029
			c0-2.279,0.887-4.42,2.5-6.032c3.326-3.326,8.738-3.326,12.064,0l50.678,50.678C75.202,391.663,71.019,395.847,68.178,400.887z
			 M123.177,431.758l50.681,50.681c1.61,1.608,2.497,3.749,2.497,6.029c0,2.28-0.886,4.42-2.5,6.032
			c-3.326,3.327-8.738,3.325-12.064,0l-50.678-50.678C116.153,440.982,120.337,436.798,123.177,431.758z M112.226,416.323
			c0,9.125-7.423,16.548-16.548,16.548s-16.548-7.423-16.548-16.548s7.423-16.548,16.548-16.548S112.226,407.198,112.226,416.323z
			 M29.561,173.858c-1.608,1.61-3.75,2.497-6.029,2.497s-4.42-0.887-6.032-2.5c-3.326-3.326-3.326-8.738,0-12.064l50.678-50.678
			c2.841,5.04,7.024,9.224,12.064,12.064L29.561,173.858z M95.678,112.225c-9.125,0-16.548-7.423-16.548-16.548
			s7.423-16.548,16.548-16.548s16.548,7.423,16.548,16.548S104.803,112.225,95.678,112.225z M123.177,80.242
			c-2.84-5.041-7.024-9.224-12.064-12.064l50.681-50.681c1.608-1.61,3.75-2.497,6.029-2.497s4.42,0.887,6.032,2.5
			c3.326,3.326,3.326,8.738,0,12.064L123.177,80.242z"/>
	</g>
</g>
<g>
</g>
<g>
</g>
<g>
</g>
<g>
</g>
<g>
</g>
<g>
</g>
<g>
</g>
<g>
</g>
<g>
</g>
<g>
</g>
<g>
</g>
<g>
</g>
<g>
</g>
<g>
</g>
<g>
</g>
</svg>
