<svg id="Layer_1" enable-background="new 0 0 512 512" viewBox="0 0 512 512" xmlns="http://www.w3.org/2000/svg"><g><path d="m483.687 282.277h-43.042v-116.3c0-15.475-12.59-28.064-28.064-28.064h-64.771v-27.881c0-15.002-12.205-27.208-27.208-27.208h-17.252c-4.143 0-7.5 3.358-7.5 7.5s3.357 7.5 7.5 7.5h17.251c6.731 0 12.208 5.477 12.208 12.208v236.212h-317.809v-189.051c0-4.142-3.357-7.5-7.5-7.5s-7.5 3.358-7.5 7.5v254.231c0 15.002 12.205 27.208 27.208 27.208h17.236c3.771 20.56 21.821 36.189 43.453 36.189s39.682-15.629 43.453-36.189h119.307c4.143 0 7.5-3.358 7.5-7.5s-3.357-7.5-7.5-7.5h-119.138c-3.369-21.04-21.647-37.167-43.621-37.167s-40.252 16.127-43.621 37.167h-17.069c-6.731 0-12.208-5.476-12.208-12.208v-50.18h317.809v62.388h-47.749c-4.143 0-7.5 3.358-7.5 7.5s3.357 7.5 7.5 7.5h97.267c3.771 20.56 21.821 36.189 43.454 36.189 21.632 0 39.683-15.629 43.453-36.189h14.702c15.475 0 28.064-12.59 28.064-28.064v-99.978c0-15.612-12.701-28.313-28.313-28.313zm-395.79 119.188c16.089 0 29.178 13.089 29.178 29.178s-13.089 29.178-29.178 29.178-29.177-13.09-29.177-29.178 13.089-29.178 29.177-29.178zm295.035-119.188v-99.552h42.713v99.552zm42.848 177.544c-16.089 0-29.179-13.089-29.179-29.178s13.09-29.178 29.179-29.178 29.178 13.089 29.178 29.178-13.089 29.178-29.178 29.178zm58.156-36.189h-14.534c-3.369-21.04-21.647-37.167-43.621-37.167-21.975 0-40.253 16.127-43.622 37.167h-34.35v-270.719h64.771c7.204 0 13.064 5.861 13.064 13.064v1.748h-50.213c-4.143 0-7.5 3.358-7.5 7.5v114.552c0 4.142 3.357 7.5 7.5 7.5h108.255c7.341 0 13.313 5.972 13.313 13.313v10.664h-19.959c-12.406 0-22.5 10.094-22.5 22.5s10.094 22.5 22.5 22.5h19.96v44.314c0 7.203-5.86 13.064-13.064 13.064zm13.064-87.379v15h-19.959c-4.136 0-7.5-3.364-7.5-7.5s3.364-7.5 7.5-7.5z"/><path d="m392.772 321.253h-17.341c-4.143 0-7.5 3.358-7.5 7.5s3.357 7.5 7.5 7.5h17.341c4.143 0 7.5-3.358 7.5-7.5s-3.357-7.5-7.5-7.5z"/><path d="m7.5 129.528c4.143 0 7.5-3.358 7.5-7.5v-11.996c0-6.731 5.477-12.208 12.208-12.208h16.62c4.143 0 7.5-3.358 7.5-7.5s-3.357-7.5-7.5-7.5h-16.62c-15.003 0-27.208 12.205-27.208 27.208v11.996c0 4.142 3.357 7.5 7.5 7.5z"/><path d="m173.904 230.594c38.856 0 70.468-31.612 70.468-70.469s-31.611-70.468-70.468-70.468-70.469 31.612-70.469 70.468 31.613 70.469 70.469 70.469zm0-125.937c30.585 0 55.468 24.883 55.468 55.468s-24.883 55.469-55.468 55.469c-30.586 0-55.469-24.883-55.469-55.469s24.883-55.468 55.469-55.468z"/><path d="m85.359 245.421c1.472 1.528 3.435 2.296 5.401 2.296 1.872 0 3.748-.697 5.203-2.099 2.982-2.874 3.07-7.622.196-10.605-19.476-20.213-30.202-46.809-30.202-74.888 0-59.521 48.425-107.946 107.946-107.946s107.947 48.425 107.947 107.946c0 48.389-32.533 91.178-79.114 104.055-1.25.346-2.389 1.009-3.306 1.926l-25.525 25.526-25.525-25.526c-.917-.917-2.056-1.58-3.305-1.926-7.762-2.146-15.296-5.177-22.394-9.011-3.646-1.968-8.196-.609-10.163 3.035-1.969 3.645-.61 8.194 3.034 10.163 7.5 4.051 15.429 7.316 23.595 9.72l29.454 29.455c1.465 1.464 3.385 2.197 5.304 2.197s3.839-.732 5.304-2.197l29.454-29.454c52.028-15.303 88.188-63.52 88.188-117.962 0-67.792-55.153-122.946-122.945-122.946-67.793 0-122.946 55.153-122.946 122.946-.002 31.98 12.215 62.272 34.399 85.295z"/></g></svg>